<svg width="469" height="184" viewBox="0 0 469 184" fill="none" xmlns="http://www.w3.org/2000/svg">
<path d="M91.3872 183.217C85.2125 183.219 79.0534 182.598 73.0032 181.364C61.3353 178.974 50.2521 174.31 40.3862 167.638C25.7206 157.738 14.2406 143.797 7.3372 127.505C5.00433 121.987 3.22364 116.251 2.0212 110.381C-0.449775 98.2501 -0.449775 85.7453 2.0212 73.6142C4.41116 61.9466 9.07521 50.8638 15.7472 40.9982C25.6473 26.3326 39.588 14.8526 55.8802 7.94921C61.3985 5.61675 67.1341 3.8364 73.0032 2.63421C87.6421 -0.350179 102.788 0.277943 117.129 4.46421C129.168 8.01315 140.346 14.0043 149.967 22.0642C159.588 30.124 167.446 40.0797 173.049 51.3102H162.169V103.829C162.173 105.968 161.852 108.095 161.217 110.137C160.688 111.818 159.786 113.358 158.578 114.642C157.369 115.87 155.887 116.796 154.252 117.342C152.312 117.975 150.28 118.279 148.239 118.242C143.888 118.242 140.432 117.048 137.968 114.692C136.674 113.413 135.718 111.832 135.184 110.092C134.526 107.921 134.213 105.66 134.256 103.392V51.3102H117.996V103.881C117.986 107.791 118.717 111.666 120.151 115.303C121.516 118.624 123.615 121.594 126.289 123.989C129.06 126.459 132.313 128.328 135.842 129.477C143.981 131.935 152.666 131.916 160.794 129.423C164.354 128.24 167.621 126.314 170.38 123.773C173.048 121.304 175.125 118.266 176.457 114.884C177.856 111.179 178.544 107.244 178.483 103.284V64.8202C182.758 78.4786 183.758 92.9517 181.401 107.068C179.044 121.185 173.396 134.548 164.915 146.076C156.434 157.605 145.359 166.975 132.584 173.428C119.809 179.88 105.695 183.235 91.3832 183.22L91.3872 183.217ZM79.8692 50.2252C76.7447 50.2055 73.631 50.5941 70.6072 51.3812C67.7657 52.1366 65.0514 53.3075 62.5522 54.8562C60.0814 56.3924 57.8587 58.2955 55.9602 60.5002C53.9892 62.8164 52.3499 65.3955 51.0892 68.1632C49.7228 71.1506 48.7132 74.2886 48.0812 77.5122C47.3981 81.0375 47.0632 84.6214 47.0812 88.2122V93.0352C47.0073 98.4233 47.7404 103.792 49.2562 108.963C50.585 113.404 52.8048 117.528 55.7802 121.083C58.5763 124.406 62.1098 127.03 66.0992 128.746C70.3987 130.506 75.0109 131.375 79.6562 131.3C83.8999 131.356 88.1259 130.743 92.1782 129.481C95.787 128.323 99.1287 126.458 102.008 123.993C104.795 121.602 107.042 118.646 108.6 115.321C110.226 111.731 111.179 107.873 111.412 103.939H95.1522C94.7932 108.722 93.3612 112.305 90.8982 114.589C89.5577 115.792 87.9616 116.675 86.2302 117.17C84.0916 117.778 81.8752 118.068 79.6522 118.03C77.162 118.089 74.6908 117.584 72.4232 116.553C70.3838 115.562 68.6563 114.029 67.4302 112.122C65.9961 109.782 65.0103 107.195 64.5232 104.494C63.8305 100.846 63.5059 97.1373 63.5542 93.4242V87.4612C63.5386 83.8845 63.9043 80.3164 64.6452 76.8172C65.1859 74.168 66.2228 71.645 67.7012 69.3812C68.9748 67.505 70.7204 65.9977 72.7622 65.0112C74.9927 64.0016 77.4214 63.5054 79.8692 63.5592C82.0745 63.5216 84.2731 63.8118 86.3932 64.4202C88.1084 64.9163 89.6869 65.7992 91.0072 67.0012C92.2979 68.2609 93.2869 69.7962 93.9002 71.4922C94.6652 73.6126 95.1235 75.8313 95.2612 78.0812H111.52C111.175 74.0196 110.14 70.0466 108.458 66.3332C106.896 62.9772 104.654 59.9825 101.873 57.5392C99.0485 55.08 95.7584 53.2137 92.1982 52.0512C88.2125 50.7877 84.05 50.1712 79.8692 50.2252Z" fill="#BB2226"/>
<path d="M266.431 125.954H249.585L216.792 72.1602V125.954H199.946V44.1963H216.792L249.641 98.1025V44.1963H266.431V125.954ZM299.055 125.954H282.209V44.1963H299.055V125.954ZM381.88 86.9282C381.88 94.9767 380.457 102.033 377.612 108.098C374.767 114.162 370.687 118.841 365.371 122.136C360.093 125.43 354.028 127.077 347.178 127.077C340.402 127.077 334.356 125.449 329.041 122.192C323.725 118.935 319.607 114.293 316.687 108.266C313.767 102.202 312.288 95.2388 312.251 87.3774V83.3345C312.251 75.286 313.692 68.2108 316.575 62.1089C319.495 55.9696 323.594 51.2715 328.872 48.0146C334.188 44.7204 340.252 43.0732 347.065 43.0732C353.879 43.0732 359.924 44.7204 365.203 48.0146C370.518 51.2715 374.618 55.9696 377.5 62.1089C380.42 68.2108 381.88 75.2673 381.88 83.2783V86.9282ZM364.81 83.2222C364.81 74.6496 363.275 68.1359 360.205 63.6812C357.135 59.2264 352.756 56.999 347.065 56.999C341.413 56.999 337.052 59.2077 333.982 63.625C330.912 68.0049 329.359 74.4437 329.321 82.9414V86.9282C329.321 95.2762 330.856 101.752 333.926 106.357C336.995 110.961 341.413 113.264 347.178 113.264C352.83 113.264 357.173 111.055 360.205 106.638C363.237 102.183 364.772 95.7067 364.81 87.209V83.2222ZM460.605 125.954H443.76L410.967 72.1602V125.954H394.121V44.1963H410.967L443.816 98.1025V44.1963H460.605V125.954Z" fill="black"/>
</svg>
