<svg id="ic_invoice" xmlns="http://www.w3.org/2000/svg" width="24" height="24">
    <defs>
        <style>
            .cls-2{fill:none;stroke:#7e84a3;stroke-linecap:round;stroke-linejoin:round;stroke-width:2px}
        </style>
    </defs>
    <path id="Path_378" data-name="Path 378" d="M0 0h24v24H0z" style="fill:none"/>
    <path id="Path_379" data-name="Path 379" class="cls-2" d="M14 3v4a1 1 0 0 0 1 1h4"/>
    <path id="Path_380" data-name="Path 380" class="cls-2" d="M17 21H7a2 2 0 0 1-2-2V5a2 2 0 0 1 2-2h7l5 5v11a2 2 0 0 1-2 2z"/>
    <path id="Line_12" data-name="Line 12" class="cls-2" transform="translate(9 7)" d="M0 0h1"/>
    <path id="Line_13" data-name="Line 13" class="cls-2" transform="translate(9 13)" d="M0 0h6"/>
    <path id="Line_14" data-name="Line 14" class="cls-2" transform="translate(13 17)" d="M0 0h2"/>
</svg>
