<svg id="United_States" data-name="United States" xmlns="http://www.w3.org/2000/svg" width="20.001" height="20.001">
    <defs>
        <style>
            .cls-2{fill:#d80027}
        </style>
    </defs>
    <circle id="Ellipse_4" data-name="Ellipse 4" cx="10" cy="10" r="10" transform="translate(0 .001)" style="fill:#f0f0f0"/>
    <g id="Group_382" data-name="Group 382" transform="translate(.345 2.174)">
        <path id="Path_408" data-name="Path 408" class="cls-2" d="M244.87 191.826h10.435a10.012 10.012 0 0 0-.344-2.609H244.87z" transform="translate(-235.649 -183.999)"/>
        <path id="Path_409" data-name="Path 409" class="cls-2" d="M244.87 58.261h8.968a10.053 10.053 0 0 0-2.308-2.609h-6.66z" transform="translate(-235.649 -55.652)"/>
        <path id="Path_410" data-name="Path 410" class="cls-2" d="M102.869 458.522a9.957 9.957 0 0 0 6.225-2.174h-12.45a9.957 9.957 0 0 0 6.225 2.174z" transform="translate(-93.213 -440.695)"/>
        <path id="Path_411" data-name="Path 411" class="cls-2" d="M9.942 325.391h17.066a9.941 9.941 0 0 0 1.123-2.609H8.819a9.941 9.941 0 0 0 1.123 2.609z" transform="translate(-8.819 -312.347)"/>
    </g>
    <path id="Path_412" data-name="Path 412" d="M4.632 1.562h.911l-.843.616.324 1-.848-.616-.848.616.28-.861a10.055 10.055 0 0 0-1.94 2.162h.292l-.54.392q-.126.21-.242.427l.258.793-.484-.353q-.179.38-.327.776l.284.874h1.048L1.109 8l.324 1-.848-.615-.508.369A10.1 10.1 0 0 0 0 10h10V0a9.953 9.953 0 0 0-5.368 1.562zM5.02 9l-.848-.616L3.325 9l.324-1-.849-.612h1.048l.324-1 .324 1h1.048L4.7 8zM4.7 5.091l.324 1-.848-.616-.848.616.324-1-.852-.616h1.048l.324-1 .324 1h1.048zM8.607 9l-.848-.616L6.912 9l.324-1-.848-.616h1.048l.324-1 .324 1h1.047L8.283 8zm-.324-3.91.324 1-.848-.616-.848.616.324-1-.848-.616h1.049l.324-1 .324 1h1.047zm0-2.913.324 1-.848-.616-.848.616.324-1-.848-.616h1.049l.324-1 .324 1h1.047z" style="fill:#0052b4"/>
</svg>
