<svg width="33" height="39" viewBox="0 0 33 39" fill="none" xmlns="http://www.w3.org/2000/svg">
<path d="M11.25 33.337V27.7557H21.7502V33.337C21.7502 34.7293 21.1972 36.0647 20.2128 37.0494C19.2284 38.0341 17.8933 38.5875 16.5009 38.5879V38.5879C15.1083 38.5879 13.7727 38.0347 12.788 37.0499C11.8032 36.0652 11.25 34.7296 11.25 33.337H11.25Z" fill="black"/>
<path d="M17.8853 0H15.1231C14.2288 0 13.5039 0.72492 13.5039 1.61916V6.50415C13.5039 7.39838 14.2288 8.1233 15.1231 8.1233H17.8853C18.7796 8.1233 19.5045 7.39838 19.5045 6.50415V1.61916C19.5045 0.72492 18.7796 0 17.8853 0Z" fill="black"/>
<path d="M16.1916 2.70703H16.8084C21.1027 2.70703 25.2211 4.41292 28.2576 7.44943C31.2941 10.4859 33 14.6043 33 18.8986V29.2612C33 30.12 32.6588 30.9437 32.0515 31.551C31.4442 32.1583 30.6205 32.4995 29.7617 32.4995H3.23831C2.37946 32.4995 1.55578 32.1583 0.948479 31.551C0.341178 30.9437 0 30.12 0 29.2612V18.8986C0 14.6043 1.70589 10.4859 4.7424 7.44943C7.7789 4.41292 11.8973 2.70703 16.1916 2.70703V2.70703Z" fill="black"/>
</svg>
