<svg id="ic_setting" xmlns="http://www.w3.org/2000/svg" width="24" height="24">
    <defs>
        <style>
            .cls-2{fill:none;stroke:#7e84a3;stroke-linecap:round;stroke-linejoin:round;stroke-width:2px}
        </style>
    </defs>
    <path id="Path_386" data-name="Path 386" d="M0 0h24v24H0z" style="fill:none"/>
    <path id="Path_387" data-name="Path 387" class="cls-2" d="M10.325 4.317a1.724 1.724 0 0 1 3.35 0 1.724 1.724 0 0 0 2.573 1.066 1.725 1.725 0 0 1 2.37 2.37 1.724 1.724 0 0 0 1.065 2.572 1.724 1.724 0 0 1 0 3.35 1.724 1.724 0 0 0-1.066 2.573 1.725 1.725 0 0 1-2.37 2.37 1.724 1.724 0 0 0-2.572 1.065 1.724 1.724 0 0 1-3.35 0 1.724 1.724 0 0 0-2.573-1.066 1.725 1.725 0 0 1-2.37-2.37 1.724 1.724 0 0 0-1.065-2.572 1.724 1.724 0 0 1 0-3.35 1.724 1.724 0 0 0 1.066-2.573 1.725 1.725 0 0 1 2.37-2.37 1.723 1.723 0 0 0 2.572-1.065z"/>
    <circle id="Ellipse_2" data-name="Ellipse 2" class="cls-2" cx="3" cy="3" r="3" transform="translate(9 9)"/>
</svg>
